<svg width="167" height="60" viewBox="0 0 167 60" fill="none" xmlns="http://www.w3.org/2000/svg">
<path fill-rule="evenodd" clip-rule="evenodd" d="M133.324 27.5909C132.752 26.9566 132.016 26.6493 131.095 26.6493C130.175 26.6493 129.44 26.9566 128.847 27.5909C128.274 28.2048 127.988 28.9619 127.988 29.8626C127.988 30.7834 128.274 31.5405 128.847 32.1748C129.44 32.7887 130.175 33.0956 131.095 33.0956C132.016 33.0956 132.752 32.7887 133.324 32.1748C133.896 31.5405 134.183 30.7834 134.183 29.8626C134.183 28.9619 133.896 28.2048 133.324 27.5909ZM134.039 19.896H136.922V35.4492H134.101V34.0778C133.201 35.1627 132.056 35.7152 130.646 35.7152C129.072 35.7152 127.743 35.1627 126.7 34.0577C125.657 32.9319 125.126 31.5405 125.126 29.8626C125.126 28.2048 125.657 26.8133 126.7 25.6879C127.763 24.5621 129.072 24.0096 130.646 24.0096C131.995 24.0096 133.119 24.5417 134.039 25.5852V19.896ZM93.4021 32.1339C92.8097 32.7477 92.0938 33.0547 91.2148 33.0547C90.3358 33.0547 89.5996 32.7477 89.0068 32.1339C88.414 31.4995 88.1278 30.7424 88.1278 29.8625C88.1278 28.9823 88.414 28.2252 89.0068 27.6113C89.5996 26.9975 90.3358 26.6902 91.2148 26.6902C92.0938 26.6902 92.8097 26.9975 93.4021 27.6113C93.9949 28.2252 94.3019 28.9823 94.3019 29.8625C94.3019 30.7424 93.9949 31.4995 93.4021 32.1339ZM91.2148 23.9891C89.4769 23.9891 88.046 24.5621 86.9214 25.708C85.7971 26.8338 85.2451 28.2252 85.2451 29.8625C85.2451 31.52 85.7971 32.9114 86.9214 34.0372C88.046 35.1627 89.4769 35.7356 91.2148 35.7356C92.9528 35.7356 94.3837 35.1627 95.508 34.0372C96.6326 32.9114 97.1842 31.52 97.1842 29.8625C97.1842 28.2252 96.6326 26.8338 95.508 25.708C94.3837 24.5621 92.9528 23.9891 91.2148 23.9891ZM63.4346 24.2962V35.4493H66.3172V30.1488C66.3172 27.8365 67.4006 26.7721 69.0363 26.7721C69.4452 26.7721 69.8949 26.8543 70.3654 26.9976L70.6104 24.2348C70.1607 24.0708 69.7109 23.9893 69.2612 23.9893C67.8913 23.9893 66.8695 24.5827 66.1949 25.79V24.2962H63.4346ZM58.6521 28.7367H52.989C53.3365 27.2839 54.4199 26.4037 55.8713 26.4037C57.3434 26.4037 58.386 27.2839 58.6521 28.7367ZM52.989 30.8856H61.3507C61.4121 30.4351 61.453 30.0057 61.453 29.617C61.453 27.8773 60.9215 26.5268 59.8786 25.5238C58.836 24.5211 57.4865 24.0096 55.8713 24.0096C54.1542 24.0096 52.7641 24.562 51.6807 25.667C50.5973 26.7723 50.0654 28.1641 50.0654 29.8625C50.0654 31.479 50.5765 32.8708 51.6194 33.9963C52.6619 35.1217 54.1542 35.6946 56.1169 35.6946C57.957 35.6946 59.572 35.1831 60.9824 34.16L59.8377 32.1338C58.8766 32.789 57.4457 33.2596 56.2396 33.2596C54.4816 33.2596 53.3982 32.4612 52.989 30.8856ZM75.2284 32.0522C75.8212 32.6456 76.5571 32.9525 77.4361 32.9525C78.3151 32.9525 79.0514 32.6456 79.6442 32.0522C80.237 31.4379 80.5232 30.6808 80.5232 29.7805C80.5232 28.8801 80.237 28.1431 79.6442 27.5501C79.0514 26.9567 78.3151 26.6494 77.4361 26.6494C76.5571 26.6494 75.8212 26.9567 75.2284 27.5501C74.6352 28.1431 74.3494 28.8801 74.3494 29.7805C74.3494 30.7013 74.6352 31.4584 75.2284 32.0522ZM80.5641 24.2962H83.2219V34.344C83.2219 36.1245 82.6495 37.5569 81.5044 38.6008C80.36 39.6444 78.8674 40.1764 77.0477 40.1764C75.1466 40.1764 73.4295 39.6444 71.9369 38.5599L73.0612 36.3905C74.3494 37.2704 75.6577 37.7001 76.9663 37.7001C79.174 37.7001 80.4414 36.411 80.4414 34.61V34.0374C79.5829 34.9988 78.4381 35.4697 77.0072 35.4697C75.3715 35.4697 74.0424 34.9374 72.9999 33.8529C71.9573 32.768 71.4463 31.4178 71.4463 29.76C71.4463 28.1022 71.9982 26.7312 73.0816 25.6467C74.1654 24.5619 75.5146 24.0097 77.1295 24.0097C78.4991 24.0097 79.6442 24.5209 80.5641 25.524V24.2962ZM99.2061 35.4493V24.2962H102.028V25.8513C102.62 24.7668 103.949 23.9893 105.523 23.9893C106.73 23.9893 107.772 24.3985 108.61 25.1965C109.448 25.9946 109.878 27.1405 109.878 28.6346V35.4493H106.995V29.4121C106.995 27.6319 106.055 26.6494 104.644 26.6494C103.111 26.6494 102.089 27.8157 102.089 29.4739V35.4493H99.2061ZM119.914 32.1339C119.321 32.7477 118.605 33.0547 117.726 33.0547C116.847 33.0547 116.111 32.7477 115.518 32.1339C114.926 31.4995 114.639 30.7424 114.639 29.8625C114.639 28.9823 114.926 28.2252 115.518 27.6113C116.111 26.9975 116.847 26.6902 117.726 26.6902C118.605 26.6902 119.321 26.9975 119.914 27.6113C120.507 28.2252 120.813 28.9823 120.813 29.8625C120.813 30.7424 120.507 31.4995 119.914 32.1339ZM117.726 23.9891C115.988 23.9891 114.557 24.5621 113.433 25.708C112.309 26.8338 111.757 28.2252 111.757 29.8625C111.757 31.52 112.309 32.9114 113.433 34.0372C114.557 35.1627 115.988 35.7356 117.726 35.7356C119.464 35.7356 120.895 35.1627 122.02 34.0372C123.144 32.9114 123.696 31.52 123.696 29.8625C123.696 28.2252 123.144 26.8338 122.02 25.708C120.895 24.5621 119.464 23.9891 117.726 23.9891ZM147.553 28.7367H141.889C142.237 27.2839 143.321 26.4037 144.772 26.4037C146.244 26.4037 147.287 27.2839 147.553 28.7367ZM141.889 30.8856H150.251C150.312 30.4351 150.353 30.0057 150.353 29.617C150.353 27.8773 149.822 26.5268 148.779 25.5238C147.736 24.5211 146.387 24.0096 144.772 24.0096C143.055 24.0096 141.665 24.562 140.581 25.667C139.498 26.7723 138.966 28.1641 138.966 29.8625C138.966 31.479 139.477 32.8708 140.52 33.9963C141.563 35.1217 143.055 35.6946 145.017 35.6946C146.857 35.6946 148.472 35.1831 149.883 34.16L148.738 32.1338C147.777 32.789 146.346 33.2596 145.14 33.2596C143.382 33.2596 142.299 32.4612 141.889 30.8856Z" fill="#33373E"/>
<path fill-rule="evenodd" clip-rule="evenodd" d="M41.7502 21.6243V31.2381L38.9784 32.8405V24.8289L33.9962 27.711C33.7741 26.7749 33.2824 25.9422 32.6065 25.3075L37.5925 22.4258L30.6631 18.4235L33.4349 16.8208L41.7502 21.6243ZM25.9471 25.3077L20.9614 22.4256L27.8908 18.4233L25.1191 16.821L16.8037 21.6241V31.238L18.8825 32.4384L19.5755 32.8372V24.8291L24.5578 27.7108C24.7795 26.7748 25.2712 25.9424 25.9471 25.3077ZM37.5926 38.445L37.5961 35.2404L30.6632 39.2465V33.489C30.2231 33.6207 29.7589 33.6901 29.2773 33.6901C28.7957 33.6901 28.3314 33.6207 27.8914 33.489V39.2465L20.9619 35.2442V38.445L29.2773 43.2523L37.5926 38.445ZM31.3143 29.2613C31.3421 29.1226 31.3559 28.9804 31.3559 28.8347C31.3559 27.9122 30.7565 27.1284 29.925 26.8578C29.7202 26.7888 29.5019 26.7538 29.2771 26.7538C29.0519 26.7538 28.8336 26.7888 28.6292 26.8578C27.8008 27.1284 27.1982 27.9122 27.1982 28.8347C27.1982 28.9804 27.2121 29.1226 27.2398 29.2613H27.2433C27.3334 29.7018 27.5655 30.0937 27.8912 30.3815C28.2584 30.7145 28.7435 30.9156 29.2771 30.9156C29.8106 30.9156 30.2954 30.7145 30.663 30.3815C30.9883 30.0937 31.2204 29.7018 31.3109 29.2613H31.3143Z" fill="#00BC87"/>
</svg>
